# AST/ASF file generated using VICON BodyLanguage
# -----------------------------------------------
:version 1.10
:name VICON
:units
  mass 1.0
  length 0.45
  angle deg
:documentation
   .ast/.asf automatically generated from VICON data using
   VICON BodyBuilder and BodyLanguage model FoxedUp or BRILLIANT.MOD
:root
   order TX TY TZ RX RY RZ
   axis XYZ
   position 0 0 0  
   orientation 0 0 0 
:bonedata
  begin
     id 1 
     name lhipjoint
     direction 0.722297 -0.617336 0.311742 
     length 2.6635 
     axis 0 0 0  XYZ
  end
  begin
     id 2 
     name lfemur
     direction 0.34202 -0.939693 0  
     length 7.39349  
     axis 0 0 20  XYZ
    dof rx ry rz
    limits (-160.0 20.0)
           (-70.0 70.0)
           (-60.0 70.0)
  end
  begin
     id 3 
     name ltibia
     direction 0.34202 -0.939693 0   
     length 7.36294   
     axis 0 0 20   XYZ
    dof rx
    limits (-10.0 170.0)
  end
  begin
     id 4 
     name lfoot
     direction 0.104879 -0.288152 0.951824   
     length 2.16981   
     axis -90 7.62852e-016 20   XYZ
    dof rx rz
    limits (-45.0 90.0)
           (-70.0 20.0)
  end
  begin
     id 5 
     name ltoes
     direction 1.53586e-011 -4.21895e-011 1   
     length 1.08218   
     axis -90 7.62852e-016 20   XYZ
    dof rx
    limits (-90.0 20.0)
  end
  begin
     id 6 
     name rhipjoint
     direction -0.75102 -0.589393 0.297631   
     length 2.78977  
     axis 0 0 0  XYZ 
  end
  begin
     id 7 
     name rfemur
     direction -0.34202 -0.939693 0   
     length 7.46076   
     axis 0 0 -20   XYZ
    dof rx ry rz
    limits (-160.0 20.0)
           (-70.0 70.0)
           (-70.0 60.0)
  end
  begin
     id 8 
     name rtibia
     direction -0.34202 -0.939693 0   
     length 7.31726   
     axis 0 0 -20   XYZ
    dof rx
    limits (-10.0 170.0)
 end
 begin
     id 9 
     name rfoot
     direction -0.107991 -0.296704 0.948844   
     length 2.09388  
     axis -90 -7.62852e-016 -20   XYZ
    dof rx rz
    limits (-45.0 90.0)
           (-20.0 70.0)
  end
  begin
     id 10 
     name rtoes
     direction -1.53559e-011 -4.21911e-011 1   
     length 1.04433   
     axis -90 -7.62852e-016 -20   XYZ
    dof rx
    limits (-90.0 20.0)
  end
  begin
     id 11 
     name lowerback
     direction 0.0165164 0.98272 0.184358   
     length 1.71896   
     axis 0 0 0   XYZ
    dof rx ry rz
    limits (-20.0 45.0)
           (-30.0 30.0)
           (-30.0 30.0)
  end
  begin
     id 12 
     name upperback
     direction -0.00887249 0.992297 0.123566   
     length 1.71504   
     axis 0 0 0   XYZ
    dof rx ry rz
    limits (-20.0 45.0)
           (-30.0 30.0)
           (-30.0 30.0)
  end
  begin
     id 13 
     name thorax
     direction -0.0157026 0.998908 0.0440032   
     length 1.77022   
     axis 0 0 0   XYZ
    dof rx ry rz
    limits (-20.0 45.0)
           (-30.0 30.0)
           (-30.0 30.0)
  end
  begin
     id 14 
     name lowerneck
     direction -0.0238856 0.998137 0.0561411   
     length 1.89341   
     axis 0 0 0   XYZ
    dof rx ry rz
    limits (-20.0 45.0)
           (-30.0 30.0)
           (-30.0 30.0)
  end
  begin
     id 15 
     name upperneck
     direction 0.0276574 0.952253 -0.304056   
     length 1.86999   
     axis 0 0 0   XYZ
    dof rx ry rz
    limits (-20.0 45.0)
           (-30.0 30.0)
           (-30.0 30.0)
  end
  begin
     id 16
     name head
     direction 0.00800083 0.994258 -0.106712  
     length 1.91492  
     axis 0 0 0   XYZ
    dof rx ry rz
    limits (-20.0 45.0)
           (-30.0 30.0)
           (-30.0 30.0)
  end
  begin
     id 17 
     name lclavicle
     direction 0.97203 0.225407 0.06595  
     length 3.34889  
     axis 0 0 0   XYZ
    dof ry rz
    limits (-20.0 10.0)
           (0.0 20.0)
  end
  begin
     id 18 
     name lhumerus
     direction 1 -4.48973e-011 2.20267e-027   
     length 4.85645   
     axis 180 -30 -90   XYZ
    dof rx ry rz
    limits (-60.0 90.0)
           (-90.0 90.0)
           (-90.0 90.0)
  end
  begin
     id 19
     name lradius
     direction 1 -4.4897e-011 4.60472e-027   
     length 2.79874   
     axis 180 -30 -90   XYZ
    dof rx
    limits (-10.0 170.0)
  end
  begin
     id 20
     name lwrist
     direction 1 -4.48952e-011 1.14928e-026   
     length 1.39937   
     axis -6.29373e-015 90 90   XYZ
    dof ry
    limits (-180.0 0.0)
 end
  begin
     id 21 
     name lhand
     direction 1 -4.48967e-011 2.29886e-026   
     length 0.573398   
     axis -1.46689e-014 90 90   XYZ
    dof rx rz
    limits (-90.0 90.0)
           (-45.0 45.0)
  end
  begin
     id 22 
     name lfingers
     direction 1 -4.48955e-011 4.59726e-026   
     length 0.462289   
     axis -2.93383e-014 90 90   XYZ
    dof rx
    limits (0.0 90.0)
  end
  begin
     id 23
     name lthumb
     direction 0.707107 -6.34866e-011 0.707107   
     length 0.663757   
     axis -90 45 5.69224e-014   XYZ
    dof rx rz
    limits (-45.0 45.0)
           (-45.0 45.0)
  end
  begin
     id 24 
     name rclavicle
     direction -0.981571 0.157346 0.108443   
     length 3.35257  
     axis 0 0 0   XYZ 
    dof ry rz
    limits (-10.0 20.0)
           (-20.0 0.0)
  end
  begin
     id 25 
     name rhumerus
     direction -1 -4.48967e-011 8.58308e-029  
     length 4.67018   
     axis 180 30 90   XYZ
    dof rx ry rz
    limits (-90.0 60.0)
           (-90.0 90.0)
           (-90.0 90.0)
  end
  begin
     id 26 
     name rradius
     direction -1 -4.48958e-011 4.52548e-027   
     length 2.65534   
     axis 180 30 90   XYZ
    dof rx
    limits (-10.0 170.0)
  end
  begin
     id 27 
     name rwrist
     direction -1 -4.48977e-011 1.14952e-026   
     length 1.32767   
     axis -6.29373e-015 -90 -90   XYZ
    dof ry
    limits (-180.0 0.0)
  end
  begin
     id 28
     name rhand
     direction -1 -4.48924e-011 2.29804e-026   
     length 0.594069   
     axis -1.46689e-014 -90 -90   XYZ
    dof rx rz
    limits (-90.0 90.0)
           (-45.0 45.0)
  end
  begin
     id 29
     name rfingers
     direction -1 -4.48998e-011 4.59888e-026   
     length 0.478954   
     axis -2.93383e-014 -90 -90   XYZ
    dof rx
    limits (0.0 90.0)
  end
  begin
     id 30
     name rthumb
     direction -0.707107 -6.34933e-011 0.707107   
     length 0.687685   
     axis -90 -45 -5.69224e-014   XYZ
    dof rx rz
    limits (-45.0 45.0)
           (-45.0 45.0)
  end
:hierarchy
  begin
    root lhipjoint rhipjoint lowerback
    lhipjoint lfemur
    lfemur ltibia
    ltibia lfoot
    lfoot ltoes
    rhipjoint rfemur
    rfemur rtibia
    rtibia rfoot
    rfoot rtoes
    lowerback upperback
    upperback thorax
    thorax lowerneck lclavicle rclavicle
    lowerneck upperneck
    upperneck head
    lclavicle lhumerus
    lhumerus lradius
    lradius lwrist
    lwrist lhand lthumb
    lhand lfingers
    rclavicle rhumerus
    rhumerus rradius
    rradius rwrist
    rwrist rhand rthumb
    rhand rfingers
  end

#!OML:ASF E:\pregnant2\Project 1\Capture day 1\Session 1\pregnant2.ASF
:FULLY-SPECIFIED
:DEGREES
32
root 7.7045 10.7766 15.8063 15.0409 -1.37157 3.29348
lowerback 3.6167 -0.557708 -3.36161
upperback -12.0751 -1.39392 -1.80109
thorax -15.3509 -0.410121 0.0960006
lowerneck -13.8039 -4.9732 -7.39031
upperneck 28.648 -7.73506 7.98793
head 12.36 -3.30158 3.14026
rclavicle 6.65929e-015 1.03368e-014
rhumerus -28.1235 34.9765 -102.891
rradius 57.0935
rwrist 30.7244
rhand -17.3098 -4.21838
rfingers 7.12502
rthumb 8.93641 -34.0091
lclavicle 6.65929e-015 1.03368e-014
lhumerus -28.3205 -35.3144 100.065
lradius 58.8908
lwrist -20.6954
lhand -8.14947 19.6001
lfingers 7.12502
lthumb 17.765 48.8086
rfemur -98.9375 -6.78087 15.2592
rtibia 70.2936
rfoot 14.9447 -3.94852
rtoes 4.27986
lfemur -96.0211 2.62417 -18.7772
ltibia 65.1893
lfoot 14.0884 -5.19528
ltoes -18.0174
33
root 7.70454 10.7745 15.8049 14.9917 -1.35584 3.32074
lowerback 3.66549 -0.563323 -3.38105
upperback -12.0755 -1.40573 -1.79517
thorax -15.3825 -0.412399 0.115797
lowerneck -13.7897 -4.99714 -7.42078
upperneck 28.6671 -7.76597 7.99119
head 12.3694 -3.31863 3.14251
rclavicle 1.19271e-015 -1.03368e-014
rhumerus -28.1413 35.0698 -102.95
rradius 57.0777
rwrist 30.3963
rhand -16.8833 -3.68688
rfingers 7.12502
rthumb 9.34796 -33.4596
lclavicle 1.19271e-015 -1.03368e-014
lhumerus -28.3283 -35.403 100.136
lradius 58.7661
lwrist -20.7069
lhand -8.20559 19.4592
lfingers 7.12502
lthumb 17.711 48.6726
rfemur -98.9035 -6.79288 15.2122
rtibia 70.3188
rfoot 14.9496 -3.96727
rtoes 4.293
lfemur -95.9721 2.59902 -18.7946
ltibia 65.18
lfoot 14.0991 -5.17286
ltoes -18.0616
34
root 7.70479 10.7725 15.8034 14.9422 -1.34258 3.34554
lowerback 3.71425 -0.568761 -3.39722
upperback -12.0765 -1.41672 -1.78735
thorax -15.4148 -0.414511 0.135773
lowerneck -13.7755 -5.02029 -7.45397
upperneck 28.6848 -7.79459 7.99355
head 12.3781 -3.33507 3.14522
rclavicle 2.28602e-015 5.1684e-015
rhumerus -28.1729 35.2034 -103.014
rradius 57.0712
rwrist 30.0705
rhand -16.4999 -3.18967
rfingers 7.12502
rthumb 9.71792 -32.9455
lclavicle 2.28602e-015 5.1684e-015
lhumerus -28.3362 -35.4979 100.206
lradius 58.6359
lwrist -20.7396
lhand -8.28092 19.2909
lfingers 7.12502
lthumb 17.6385 48.5109
rfemur -98.8688 -6.80251 15.167
rtibia 70.3438
rfoot 14.9499 -3.98854
rtoes 4.32555
lfemur -95.924 2.57521 -18.8086
ltibia 65.1741
lfoot 14.109 -5.14675
ltoes -18.08
35
root 7.70516 10.7706 15.8019 14.8929 -1.33127 3.36773
lowerback 3.7614 -0.574941 -3.4123
upperback -12.0764 -1.42813 -1.77664
thorax -15.4446 -0.416743 0.158479
lowerneck -13.7646 -5.04345 -7.48702
upperneck 28.6989 -7.82115 7.99078
head 12.3856 -3.35116 3.1461
rclavicle -3.67752e-015 1.11319e-014
rhumerus -28.2132 35.3808 -103.082
rradius 57.074
rwrist 29.7499
rhand -16.1641 -2.71949
rfingers 7.12502
rthumb 10.0419 -32.4599
lclavicle -3.67752e-015 1.11319e-014
lhumerus -28.3411 -35.5922 100.27
lradius 58.5051
lwrist -20.7865
lhand -8.36139 19.0847
lfingers 7.12502
lthumb 17.5611 48.3115
rfemur -98.8337 -6.80924 15.1224
rtibia 70.3683
rfoot 14.9493 -4.00928
rtoes 4.35604
lfemur -95.8775 2.55275 -18.8193
ltibia 65.1723
lfoot 14.118 -5.12154
ltoes -18.0812
36
root 7.70564 10.7688 15.8004 14.8413 -1.32229 3.3866
lowerback 3.81003 -0.581765 -3.42604
upperback -12.0745 -1.43987 -1.76253
thorax -15.473 -0.419028 0.184347
lowerneck -13.7578 -5.06548 -7.52111
upperneck 28.7105 -7.84433 7.985
head 12.3926 -3.36614 3.14639
rclavicle 3.77691e-015 -1.59028e-015
rhumerus -28.2605 35.6055 -103.153
rradius 57.0864
rwrist 29.4377
rhand -15.8841 -2.27592
rfingers 7.12502
rthumb 10.3119 -32.0031
lclavicle 3.77691e-015 -1.59028e-015
lhumerus -28.3415 -35.6851 100.327
lradius 58.3765
lwrist -20.8284
lhand -8.43415 18.8341
lfingers 7.12502
lthumb 17.4911 48.0672
rfemur -98.7957 -6.81277 15.0798
rtibia 70.3925
rfoot 14.9472 -4.03147
rtoes 4.38246
lfemur -95.8303 2.5324 -18.8265
ltibia 65.1747
lfoot 14.1236 -5.0943
ltoes -18.082
37
root 7.70619 10.7669 15.7987 14.7854 -1.31256 3.40277
lowerback 3.85979 -0.590508 -3.44009
upperback -12.0692 -1.45369 -1.74434
thorax -15.4978 -0.421975 0.215383
lowerneck -13.7545 -5.08666 -7.55733
upperneck 28.7177 -7.86426 7.97665
head 12.3982 -3.38015 3.1464
rclavicle -5.11871e-015 1.82882e-014
rhumerus -28.3094 35.8671 -103.22
rradius 57.112
rwrist 29.1722
rhand -15.6251 -1.83939
rfingers 7.12502
rthumb 10.5618 -31.554
lclavicle -5.11871e-015 1.82882e-014
lhumerus -28.3382 -35.7754 100.377
lradius 58.2565
lwrist -20.849
lhand -8.48055 18.5427
lfingers 7.12502
lthumb 17.4464 47.7798
rfemur -98.7524 -6.81573 15.0379
rtibia 70.4168
rfoot 14.9427 -4.05682
rtoes 4.41243
lfemur -95.7804 2.5118 -18.8304
ltibia 65.18
lfoot 14.1275 -5.06684
ltoes -18.0839
38
root 7.70672 10.7648 15.797 14.7267 -1.30322 3.41874
lowerback 3.91139 -0.600773 -3.45787
upperback -12.0621 -1.4698 -1.72382
thorax -15.5212 -0.425367 0.25156
lowerneck -13.7513 -5.10734 -7.59507
upperneck 28.7195 -7.88214 7.96691
head 12.4014 -3.39362 3.14634
rclavicle -4.91992e-015 -1.23246e-014
rhumerus -28.3644 36.1696 -103.291
rradius 57.1444
rwrist 28.934
rhand -15.4193 -1.42022
rfingers 7.12502
rthumb 10.7603 -31.1246
lclavicle -4.91992e-015 -1.23246e-014
lhumerus -28.3345 -35.8644 100.42
lradius 58.1499
lwrist -20.8298
lhand -8.48448 18.2134
lfingers 7.12502
lthumb 17.4426 47.4508
rfemur -98.7071 -6.8181 14.996
rtibia 70.4417
rfoot 14.9383 -4.07951
rtoes 4.42967
lfemur -95.7291 2.49168 -18.8345
ltibia 65.1877
lfoot 14.1291 -5.04096
ltoes -18.091
39
root 7.70723 10.7626 15.7952 14.6656 -1.28938 3.43068
lowerback 3.96458 -0.614259 -3.47436
upperback -12.0524 -1.48966 -1.69935
thorax -15.5421 -0.430394 0.292161
lowerneck -13.7483 -5.12666 -7.63463
upperneck 28.7149 -7.89665 7.95622
head 12.4018 -3.40596 3.14661
rclavicle 2.83268e-015 2.42517e-014
rhumerus -28.4248 36.5126 -103.367
rradius 57.1848
rwrist 28.7343
rhand -15.2621 -1.03527
rfingers 7.12502
rthumb 10.9119 -30.7317
lclavicle 2.83268e-015 2.42517e-014
lhumerus -28.3301 -35.9565 100.457
lradius 58.0607
lwrist -20.7541
lhand -8.43584 17.8616
lfingers 7.12502
lthumb 17.4894 47.0949
rfemur -98.6587 -6.82298 14.9586
rtibia 70.467
rfoot 14.9322 -4.1016
rtoes 4.44338
lfemur -95.6772 2.46909 -18.8336
ltibia 65.1961
lfoot 14.1331 -5.01746
ltoes -18.1057
40
root 7.70774 10.7602 15.7932 14.6032 -1.27379 3.43909
lowerback 4.01872 -0.629057 -3.4884
upperback -12.0419 -1.51084 -1.67312
thorax -15.5626 -0.436191 0.333641
lowerneck -13.7403 -5.14561 -7.67656
upperneck 28.702 -7.9101 7.94713
head 12.3979 -3.41808 3.14798
rclavicle -3.52843e-015 1.03368e-014
rhumerus -28.4977 36.898 -103.454
rradius 57.2334
rwrist 28.5699
rhand -15.1633 -0.702237
rfingers 7.12502
rthumb 11.0072 -30.3936
lclavicle -3.52843e-015 1.03368e-014
lhumerus -28.3303 -36.0531 100.49
lradius 57.993
lwrist -20.6154
lhand -8.32075 17.4898
lfingers 7.12502
lthumb 17.6002 46.7132
rfemur -98.6093 -6.82853 14.9258
rtibia 70.4927
rfoot 14.9246 -4.12158
rtoes 4.46225
lfemur -95.6257 2.44664 -18.8292
ltibia 65.2059
lfoot 14.1378 -4.99797
ltoes -18.1242
41
root 7.70815 10.7576 15.7911 14.5377 -1.25865 3.44729
lowerback 4.07626 -0.644214 -3.50415
upperback -12.0295 -1.53289 -1.64728
thorax -15.5828 -0.44222 0.375893
lowerneck -13.7276 -5.16563 -7.72247
upperneck 28.6787 -7.92541 7.94411
head 12.3895 -3.43093 3.15194
rclavicle 7.35503e-015 2.46493e-014
rhumerus -28.5794 37.3176 -103.552
rradius 57.2849
rwrist 28.4285
rhand -15.127 -0.436464
rfingers 7.12502
rthumb 11.0423 -30.126
lclavicle 7.35503e-015 2.46493e-014
lhumerus -28.335 -36.1608 100.52
lradius 57.9481
lwrist -20.4085
lhand -8.14425 17.1071
lfingers 7.12502
lthumb 17.77 46.3152
rfemur -98.5578 -6.83304 14.8939
rtibia 70.518
rfoot 14.9188 -4.1386
rtoes 4.47564
lfemur -95.5717 2.42557 -18.8251
ltibia 65.2159
lfoot 14.1411 -4.98123
ltoes -18.15
